<?xml version="1.0" encoding="utf-8"?>
<!-- Generator: Adobe Illustrator 27.1.1, SVG Export Plug-In . SVG Version: 6.00 Build 0)  -->
<svg version="1.1" id="Layer_2_00000096051499475022183320000016514967427460709544_"
	 xmlns="http://www.w3.org/2000/svg" xmlns:xlink="http://www.w3.org/1999/xlink" x="0px" y="0px" viewBox="0 0 437.29 122.77"
	 style="enable-background:new 0 0 437.29 122.77;" xml:space="preserve">
<style type="text/css">
	.st0{fill:#EEEEEE;}
</style>
<g>
	<path class="st0" d="M176.73,8.06c0,3.07,0,6.07,0,9.18c3.93,0,7.75,0,11.66,0c0,2.13,0,4.15,0,6.3c-3.84,0-7.65,0-11.58,0
		c0,10.9,0,21.68,0,32.54c-1.99,0-3.86,0-5.81,0c0-9.06,0-18.06,0-27.07c-5.49,9.47-13.26,16.72-22.09,23.23
		c-0.59-0.91-1.15-1.77-1.7-2.63c-0.54-0.84-1.09-1.69-1.7-2.64c8.63-6.5,16.49-13.68,21.88-23.52c-7.51,0-14.79,0-22.12,0
		c0-2.12,0-4.08,0-6.17c8.53,0,17.03,0,25.65,0c0-3.13,0-6.14,0-9.23C172.86,8.06,174.7,8.06,176.73,8.06z"/>
	<path class="st0" d="M69.97,7.92c2.11,0.43,4.11,0.83,6.33,1.28c-0.9,1.99-1.76,3.9-2.67,5.93c7.4,0,14.7,0,22.07,0
		c-2.42,15.82-9.1,28.78-23.47,36.83c-3.87,2.17-7.99,3.72-12.27,4.82c-0.31,0.08-0.88-0.05-1.03-0.29c-1.03-1.58-1.98-3.22-3.06-5
		c8.63-1.42,15.79-5.43,22.06-11.34c-3.54-3.41-7.5-6.08-11.93-8.36c1.3-1.36,2.49-2.67,3.76-3.89c0.19-0.19,0.79-0.13,1.11,0.01
		c3.6,1.6,6.84,3.76,9.85,6.28c0.44,0.37,0.89,0.75,1.41,1.19c3.18-4.35,5.18-9.12,6.22-14.48c-0.55,0-0.97,0-1.39,0
		c-5.07,0-10.15,0.03-15.22-0.02c-1.11-0.01-1.8,0.28-2.46,1.24c-3.16,4.62-7.01,8.55-11.76,11.57c-0.32,0.2-0.65,0.4-1.04,0.64
		c-1.29-1.54-2.55-3.05-3.9-4.68C61.53,24.88,66.79,17.24,69.97,7.92z"/>
	<path class="st0" d="M361.63,19.13c0,2.72,0,5.23,0,7.91c5.3,0,10.58,0,15.9,0c0,1.9,0,3.63,0,5.47c-5.28,0-10.52,0-15.85,0
		c0,2.68,0,5.25,0,7.95c5.23,0,10.47,0,15.81,0c0,1.88,0,3.63,0,5.5c-5.26,0-10.5,0-15.89,0c0,4.2,0,8.28,0,12.42
		c-1.9,0-3.67,0-5.58,0c0-13.03,0-26.05,0-39.06c-1.3-0.36-2.09-0.18-2.71,1.07c-1.9,3.82-4.26,7.36-7.22,10.66
		c-1.19-1.59-2.34-3.11-3.52-4.7c2.66-2.85,4.84-6.01,6.38-9.54c1.52-3.49,2.77-7.1,4.21-10.83c1.61,0.18,3.48,0.39,5.52,0.62
		c-0.72,2.41-1.4,4.69-2.11,7.05c7.41,0,14.75,0,22.2,0c0,1.83,0,3.58,0,5.47C373.07,19.13,367.41,19.13,361.63,19.13z"/>
	<path class="st0" d="M47.33,55.57c-5.44-5.66-10.82-11.26-16.29-16.95c-5.96,7.18-12.5,13.18-20.96,16.97
		c-1.17-1.7-2.32-3.37-3.52-5.11c14.79-6.87,24.27-18.38,30.02-33.48c-9.14,0-18.04,0-27.03,0c0-2.01,0-3.96,0-5.98
		c11.55,0,23.11,0,34.81,0c-1.69,8.35-5.15,15.89-9.83,22.84c5.9,5.53,11.73,11,17.62,16.52C50.37,52.3,48.78,54.01,47.33,55.57z"/>
	<path class="st0" d="M274.78,19.35c-11.03,0-21.87,0-32.8,0c0-2.01,0-3.95,0-6.02c11.03,0,22.05,0,33.36,0
		c-0.67-2.51-1.29-4.84-1.95-7.31c1.25-0.22,2.56-0.47,3.89-0.64c0.2-0.03,0.6,0.33,0.67,0.58c0.63,2.11,1.23,4.22,1.78,6.35
		c0.07,0.27-0.2,0.63-0.32,1c0.49,0,1.18,0,2.1,0c-0.19,2.22-0.32,4.33-0.57,6.42c-0.78,6.43-2.47,12.58-5.74,18.23
		c-5.19,8.97-13.11,14.3-22.92,17.1c-2.56,0.73-2.57,0.71-3.88-1.67c-0.63-1.15-1.26-2.3-1.99-3.64
		c9.61-1.78,17.98-5.49,23.26-14.16C272.68,30.64,274.14,25.2,274.78,19.35z"/>
	<path class="st0" d="M223.36,97.12c-0.27,7.74-3.24,14.05-10.06,18.1c-8.25,4.9-18.77,2.73-24.68-4.9
		c-6.37-8.22-5.81-20.36,1.28-27.97c9.07-9.73,24.25-7.67,30.78,4.19C222.48,89.83,223.38,93.35,223.36,97.12z M218.68,97.01
		c0.03-2.55-0.5-4.99-1.53-7.32c-4.51-10.19-17.83-12.02-24.72-3.38c-4.75,5.95-4.76,15.18-0.04,21.15
		c5.92,7.48,16.46,7.62,22.53,0.28C217.48,104.62,218.66,101.01,218.68,97.01z"/>
	<path class="st0" d="M274.27,83.95c-1.13,1.02-2.22,2-3.45,3.1c0,0.01-0.08-0.21-0.22-0.38c-3.54-4.39-8.04-6.71-13.73-5.72
		c-5.72,0.99-9.45,4.58-11.45,9.92c-2.64,7.01-0.29,15.22,5.57,19.61c3.72,2.79,7.85,3.72,12.23,1.78c4.4-1.95,7.16-5.3,7.83-10.18
		c0.03-0.18,0-0.38,0-0.71c-3.2,0-6.35,0-9.56,0c0-1.55,0-2.97,0-4.45c4.91,0,9.77,0,14.93,0c-0.2,2.06-0.26,4.1-0.62,6.09
		c-1.34,7.46-6.55,13.04-13.64,14.42c-7.08,1.39-12.9-1.05-17.47-6.47c-8.57-10.16-5.75-26.29,5.63-32.56
		C258.35,73.98,268.81,76.35,274.27,83.95z"/>
	<path class="st0" d="M142.01,116.94c0-13.34,0-26.56,0-39.78c0.07-0.05,0.13-0.13,0.19-0.13c4.6,0,9.23-0.4,13.76,0.69
		c9.42,2.26,14.74,9.27,14.67,19.2c-0.03,3.69-0.67,7.24-2.48,10.5c-2.42,4.36-6.19,7.04-10.89,8.48
		C152.28,117.42,147.15,116.83,142.01,116.94z M146.64,112.42c3.71,0.04,7.23-0.21,10.61-1.52c4.55-1.77,7.4-5.04,8.29-9.81
		c0.38-2.03,0.42-4.16,0.3-6.23c-0.32-5.8-3.73-10.2-9.2-12.02c-1.35-0.45-2.76-0.8-4.17-0.97c-1.93-0.24-3.89-0.26-5.84-0.38
		C146.64,91.93,146.64,102.1,146.64,112.42z"/>
	<path class="st0" d="M424.09,7.75c0,6.61,0,13.14,0,19.76c-11.82,0-23.6,0-35.46,0c0-6.57,0-13.12,0-19.76
		C400.41,7.75,412.19,7.75,424.09,7.75z M419.01,12.96c-8.52,0-16.89,0-25.24,0c0,3.17,0,6.25,0,9.29c8.47,0,16.85,0,25.24,0
		C419.01,19.12,419.01,16.07,419.01,12.96z"/>
	<path class="st0" d="M325.56,77.01c3.85-0.02,7.61-0.26,11.26,0.88c6.5,2.02,9.12,10.39,4.99,15.84c-0.54,0.71-1.05,1.45-1.48,2.05
		c3.09,0.87,5.27,3.31,6.34,6.75c2.09,6.7-1.74,12.99-8.88,14.03c-3.99,0.58-8.09,0.38-12.23,0.53
		C325.56,103.62,325.56,90.4,325.56,77.01z M330.19,112.5c2.82-0.06,5.57,0.28,8.21-0.74c2.59-0.99,3.9-2.94,4.09-5.65
		c0.18-2.59-0.65-4.74-3.02-6.05c-2.91-1.61-6.08-1.4-9.28-1.32C330.19,103.35,330.19,107.82,330.19,112.5z M330.22,94.75
		c3.05-0.19,6.3,0.32,8.13-2.72c1.54-2.57,1.58-5.51-0.07-8.06c-1.89-2.91-5.07-2.4-8.06-2.5
		C330.22,85.92,330.22,90.24,330.22,94.75z"/>
	<path class="st0" d="M307.56,77.07c0,13.3,0,26.52,0,39.81c-1.52,0-2.97,0-4.56,0c0-6.31,0-12.6,0-18.97c-5.99,0-11.85,0-17.83,0
		c0,6.29,0,12.58,0,18.95c-1.6,0-3.08,0-4.63,0c0-13.25,0-26.47,0-39.78c1.5,0,2.98,0,4.58,0c0,5.33,0,10.62,0,15.98
		c5.97,0,11.83,0,17.82,0c0-5.34,0-10.63,0-15.99C304.52,77.07,305.98,77.07,307.56,77.07z"/>
	<path class="st0" d="M131.23,77.05c1.63,0,3.08,0,4.66,0c0,0.44,0,0.82,0,1.19c0,7.9,0.01,15.79,0,23.69
		c0,3.91-0.78,7.63-3.19,10.82c-3.06,4.05-7.29,5.49-12.19,4.96c-5.16-0.56-8.79-3.39-10.59-8.21c-0.82-2.2-1.31-4.65-1.36-7
		c-0.16-8.2-0.07-16.41-0.06-24.62c0-0.26,0.04-0.52,0.07-0.84c1.52,0,2.97,0,4.59,0c0,0.48,0,0.93,0,1.38
		c0,7.32-0.07,14.63,0.04,21.94c0.04,2.3,0.32,4.65,0.93,6.86c1.09,3.96,4.02,5.94,8.13,5.92c4.03-0.02,6.93-2.01,8-5.93
		c0.6-2.21,0.89-4.56,0.93-6.86c0.11-7.27,0.04-14.55,0.04-21.83C131.23,78.08,131.23,77.61,131.23,77.05z"/>
	<path class="st0" d="M407.89,32.14c7.07,0,14.02,0,21.03,0c0,8.67,0,17.28,0,25.99c-1.6,0-3.2,0-4.91,0c0-0.82,0-1.61,0-2.49
		c-3.73,0-7.34,0-11.07,0c0,0.79,0,1.58,0,2.48c-1.75,0-3.38,0-5.05,0C407.89,49.46,407.89,40.85,407.89,32.14z M423.89,37.27
		c-3.72,0-7.3,0-10.92,0c0,4.38,0,8.69,0,13.04c3.68,0,7.29,0,10.92,0C423.89,45.92,423.89,41.63,423.89,37.27z"/>
	<path class="st0" d="M62.35,105.66c0.49,1.45,0.75,2.76,1.34,3.9c1.37,2.61,4.48,4.02,7.25,3.5c2.95-0.56,5.2-2.99,5.69-6.14
		c0.52-3.29-0.53-5.92-3.44-7.6c-1.94-1.12-4.02-1.98-6.02-2.99c-0.93-0.47-1.87-0.95-2.74-1.51c-3.84-2.49-5.47-6.04-4.65-10.18
		c0.89-4.48,3.77-7.1,8.08-8.13c5.23-1.25,10,1,12.33,5.74c-1.17,0.75-2.36,1.52-3.6,2.31c-0.4-0.54-0.74-1.04-1.13-1.5
		c-2.49-2.93-7.32-2.94-9.85-0.03c-1.93,2.23-1.77,5.35,0.53,7.21c1.04,0.84,2.28,1.43,3.48,2.04c2.17,1.1,4.49,1.94,6.54,3.22
		c4.52,2.81,5.88,7.15,5.05,12.16c-0.81,4.96-3.65,8.38-8.6,9.76c-6.37,1.78-12.58-2.08-14.3-8.81c-0.15-0.59-0.23-1.2-0.37-1.94
		C59.52,106.29,61,105.96,62.35,105.66z"/>
	<path class="st0" d="M297.46,56.93c-0.63-2-1.24-3.94-1.92-6.07c1.47-0.14,2.88-0.18,4.26-0.43c3.08-0.55,6.21-0.95,9.18-1.88
		c6.22-1.96,9.67-6.51,9.82-13.04c0.2-8.2,0.1-16.41,0.14-24.62c0-0.49,0-0.99,0-1.54c2.09,0,4.05,0,6.07,0
		c0.03,0.35,0.07,0.64,0.07,0.94c0,7.05,0.11,14.1-0.06,21.14c-0.08,3.19-0.41,6.44-1.18,9.52c-1.65,6.6-6.01,10.96-12.33,13.32
		C307.02,55.94,302.25,56.33,297.46,56.93z"/>
	<path class="st0" d="M403.75,57.78c-1.61,0-3.18,0-4.9,0c0-0.71,0-1.41,0-2.17c-3.47,0-6.78,0-10.23,0c0,0.81,0,1.64,0,2.54
		c-1.7,0-3.27,0-4.92,0c0-8.67,0-17.3,0-26c6.68,0,13.32,0,20.06,0C403.75,40.67,403.75,49.19,403.75,57.78z M398.75,50.34
		c0-4.4,0-8.73,0-13.07c-3.43,0-6.78,0-10.14,0c0,4.38,0,8.69,0,13.07C392.02,50.34,395.36,50.34,398.75,50.34z"/>
	<path class="st0" d="M140.58,20.96c-3.41,9.75-7.24,19.12-15.64,25.73c-5.43,4.27-11.76,6.42-18.44,7.69
		c-1.74,0.33-3.5,0.57-5.35,0.87c-0.5-2.27-0.97-4.41-1.45-6.62c2.33-0.33,4.59-0.59,6.82-0.98c7.52-1.29,14.25-4.1,19.23-10.21
		c2.92-3.58,4.99-7.62,6.66-11.89c0.91-2.33,1.7-4.71,2.61-7.23C136.85,19.19,138.67,20.05,140.58,20.96z"/>
	<path class="st0" d="M196.52,55.24c-0.5-2.27-0.96-4.38-1.45-6.63c1.86-0.25,3.65-0.45,5.43-0.72c6.56-1.01,12.75-2.93,17.81-7.5
		c3.99-3.6,6.66-8.12,8.71-13.01c1.04-2.49,1.89-5.07,2.83-7.6c0.17-0.46,0.33-0.93,0.52-1.47c1.88,0.9,3.69,1.76,5.57,2.65
		c-1.87,5.59-4,10.95-7.03,15.93c-3.53,5.79-8.18,10.36-14.28,13.4c-4.05,2.01-8.34,3.28-12.77,4.1
		C200.1,54.7,198.35,54.94,196.52,55.24z"/>
	<path class="st0" d="M341.64,58.37c-1.85,0-3.57,0-5.46,0c0-9.64,0-19.25,0-29.08c-1.64,1.83-3.09,3.45-4.67,5.21
		c-0.81-1.87-1.55-3.52-2.23-5.19c-0.08-0.21,0.03-0.61,0.19-0.78c6.09-6.12,9.27-13.69,11.01-21.98c0.03-0.15,0.11-0.28,0.23-0.55
		c1.76,0.32,3.53,0.65,5.55,1.02c-1.07,3.18-1.88,6.3-3.15,9.21c-1.14,2.59-1.53,5.17-1.51,7.96c0.08,10.92,0.03,21.83,0.03,32.75
		C341.64,57.4,341.64,57.85,341.64,58.37z"/>
	<path class="st0" d="M432.43,66.48c-0.41,0-0.83,0-1.24,0c-141.69,0-283.37,0-425.06-0.01c-0.45,0-0.9-0.14-1.35-0.22
		c0.03-0.16,0.05-0.32,0.08-0.47c0.41,0,0.83,0,1.24,0c141.69,0,283.37,0,425.06,0.01c0.45,0,0.9,0.15,1.35,0.22
		C432.48,66.17,432.46,66.33,432.43,66.48z"/>
	<path class="st0" d="M83.15,81.64c0-1.63,0-3.05,0-4.56c7.41,0,14.78,0,22.24,0c0,1.45,0,2.9,0,4.47c-2.87,0-5.76,0-8.75,0
		c0,11.83,0,23.54,0,35.33c-1.57,0-3.02,0-4.6,0c0-11.68,0-23.39,0-35.23C89.04,81.64,86.16,81.64,83.15,81.64z"/>
	<path class="st0" d="M357.05,112.41c3.82,0,7.49,0,11.25,0c0,1.5,0,2.91,0,4.43c-5.24,0-10.51,0-15.85,0c0-13.25,0-26.47,0-39.85
		c1.37,0,2.67-0.03,3.97,0.03c0.22,0.01,0.52,0.36,0.6,0.61c0.11,0.31,0.03,0.69,0.03,1.04c0,10.72,0,21.45,0,32.17
		C357.05,111.34,357.05,111.83,357.05,112.41z"/>
	<path class="st0" d="M375.93,77.06c0,13.31,0,26.54,0,39.83c-1.51,0-2.97,0-4.51,0c0-13.25,0-26.51,0-39.83
		C372.9,77.06,374.36,77.06,375.93,77.06z"/>
	<path class="st0" d="M318.78,116.9c-1.52,0-2.97,0-4.5,0c0-13.27,0-26.49,0-39.81c1.46,0,2.94,0,4.5,0
		C318.78,90.32,318.78,103.54,318.78,116.9z"/>
	<path class="st0" d="M179.77,116.89c-1.51,0-2.96,0-4.51,0c0-13.25,0-26.49,0-39.82c1.47,0,2.95,0,4.51,0
		C179.77,90.35,179.77,103.59,179.77,116.89z"/>
	<path class="st0" d="M292.87,10.31c2.01,0,3.9,0,5.87,0c0,10.04,0,20.03,0,30.09c-1.95,0-3.87,0-5.87,0
		C292.87,30.4,292.87,20.4,292.87,10.31z"/>
	<path class="st0" d="M209.07,28.6c-0.79,2.06-1.56,4.07-2.27,5.93c-4.89-2.15-9.71-4.28-14.61-6.43c0.7-1.7,1.46-3.55,2.21-5.38
		C196.74,22.93,206.49,26.82,209.07,28.6z"/>
	<path class="st0" d="M96.81,28.09c0.73-1.77,1.49-3.61,2.28-5.52c5.05,1.6,9.94,3.35,14.62,5.93c-0.79,2.08-1.55,4.09-2.28,6.03
		C106.57,32.39,101.76,30.27,96.81,28.09z"/>
	<path class="st0" d="M100.92,15.59c0.77-1.78,1.57-3.65,2.48-5.77c4.9,1.94,9.72,3.84,14.67,5.8c-0.97,2.24-1.82,4.2-2.63,6.05
		C110.6,19.64,105.81,17.64,100.92,15.59z"/>
	<path class="st0" d="M213.45,15.61c-1.01,2.3-1.87,4.26-2.71,6.19c-2.45-1.13-4.77-2.28-7.16-3.28c-2.38-0.99-4.82-1.83-7.35-2.78
		c0.81-1.9,1.61-3.77,2.53-5.93C203.65,11.74,208.47,13.65,213.45,15.61z"/>
	<path class="st0" d="M128.83,7.42c1.19-0.29,2.42-0.6,3.66-0.85c0.19-0.04,0.59,0.21,0.65,0.41c0.9,2.7,1.75,5.41,2.65,8.24
		c-1.68,0.42-3.08,0.78-4.51,1.14C130.46,13.35,129.66,10.44,128.83,7.42z"/>
	<path class="st0" d="M224.2,7.41c1.39-0.32,2.73-0.63,4.29-1c0.88,2.95,1.74,5.81,2.64,8.81c-1.58,0.4-2.98,0.76-4.46,1.14
		C225.84,13.4,225.04,10.49,224.2,7.41z"/>
	<path class="st0" d="M234.23,15.2c-0.91-2.9-1.77-5.62-2.67-8.5c1.16-0.28,2.41-0.62,3.68-0.84c0.2-0.04,0.62,0.39,0.73,0.68
		c0.87,2.39,1.69,4.8,2.58,7.35C237.03,14.34,235.65,14.77,234.23,15.2z"/>
	<path class="st0" d="M143.18,13.89c-1.59,0.48-2.94,0.89-4.32,1.3c-0.9-2.85-1.77-5.62-2.68-8.5c1.18-0.28,2.36-0.62,3.56-0.82
		c0.24-0.04,0.72,0.36,0.83,0.66C141.46,8.92,142.28,11.32,143.18,13.89z"/>
	<path class="st0" d="M281.1,5.63c0.91-0.17,1.86-0.24,2.72-0.55c1.22-0.43,1.63,0.09,1.9,1.16c0.53,2.09,1.14,4.16,1.75,6.37
		c-1.48,0.38-2.8,0.72-4.17,1.07C282.57,10.99,281.85,8.37,281.1,5.63z"/>
</g>
</svg>
